<svg xmlns="http://www.w3.org/2000/svg" width="121" height="82" viewBox="0 0 121 82">
  <defs>
    <linearGradient id="socialsky-email-logo-a" x1="0%" x2="100%" y1="27.142%" y2="72.858%">
      <stop offset="0%" stop-color="#9C09DB"/>
      <stop offset="100%" stop-color="#1C0FD7"/>
    </linearGradient>
  </defs>
  <path fill="url(#socialsky-email-logo-a)" d="M132.448263,907.789959 C133.021636,907.789959 133.317878,907.969561 133.336991,908.328765 C133.336991,908.428018 133.315489,908.532589 133.272486,908.642477 L133.222316,908.754138 L132.648943,910.172047 C132.419594,910.765387 131.962253,911.084879 131.276921,911.13052 L131.100838,911.136225 L129.388727,911.136225 C128.796242,911.136225 128.5,910.956623 128.5,910.59742 C128.5,910.512345 128.516126,910.411319 128.548378,910.294342 L128.586006,910.172047 L129.159378,908.754138 C129.388727,908.160797 129.854211,907.841306 130.555829,907.795664 L130.736153,907.789959 L132.448263,907.789959 Z M237.45647,894.443144 L237.585791,894.446927 C237.99633,894.472145 238.2016,894.623453 238.2016,894.900851 C238.2016,894.97312 238.18808,895.05894 238.161039,895.15831 L238.129491,895.262198 L235.245117,902.681858 L239.667824,902.681858 L242.552198,895.262198 L242.608951,895.131377 C242.813706,894.714266 243.174252,894.486751 243.690591,894.448832 L243.850166,894.443144 L245.797119,894.443144 L245.926439,894.446927 C246.336979,894.472145 246.542249,894.623453 246.542249,894.900851 C246.542249,894.975797 246.531566,895.054312 246.5102,895.136395 L246.470139,895.262198 L241.037902,909.282464 L240.96429,909.458997 C240.775003,909.861247 240.46303,910.19587 240.028371,910.462865 C239.57969,910.743913 239.112607,910.902002 238.627121,910.937133 L238.417928,910.944661 L229.572515,910.944661 L229.443195,910.940878 L229.42543,910.939699 C229.321845,910.964376 229.210673,910.980865 229.092386,910.989117 L228.909677,910.995308 L134.358249,910.995308 C133.769231,910.995308 133.474722,910.816757 133.474722,910.459656 C133.474722,910.375079 133.490754,910.274644 133.522817,910.158351 L133.560225,910.036772 L134.130242,908.62716 C134.358249,908.037292 134.821008,907.719671 135.51852,907.674296 L135.697789,907.668625 L230.249217,907.668625 C230.359221,907.668625 230.458963,907.675274 230.548446,907.688573 L230.686871,907.673968 L230.846447,907.668447 L237.744908,907.668447 L238.393892,906.006251 L232.000196,906.006251 L231.825557,906.001828 C230.980525,905.957601 230.558009,905.581668 230.558009,904.87403 C230.558009,904.765626 230.580544,904.639154 230.625612,904.494616 L230.678192,904.344054 L234.187513,895.262198 L234.244266,895.131377 C234.449021,894.714266 234.809568,894.486751 235.325906,894.448832 L235.485482,894.443144 L237.45647,894.443144 Z M153.340682,889.832426 L153.469899,889.836209 C153.880114,889.861427 154.085221,890.012735 154.085221,890.290133 C154.085221,890.402552 154.061204,890.514971 154.013169,890.62739 L154.013169,890.62739 L153.052473,893.10864 L152.992096,893.243309 C152.754813,893.715625 152.342625,893.951783 151.755533,893.951783 L151.755533,893.951783 L144.862538,893.951783 L144.069963,895.999417 L149.473879,895.999417 L149.679468,896.00568 C150.278943,896.04326 150.722785,896.249951 151.010993,896.625751 C151.315214,897.027248 151.355243,897.509044 151.13108,898.07114 L151.13108,898.07114 L148.753357,904.26222 L148.675968,904.446908 C148.448247,904.932273 148.049736,905.360536 147.480435,905.731698 C146.839971,906.133195 146.167483,906.333943 145.462973,906.333943 L145.462973,906.333943 L136.14422,906.333943 L136.00708,906.329366 C135.616557,906.301904 135.414091,906.150861 135.39968,905.876237 C135.39968,905.747758 135.431703,905.627309 135.49575,905.51489 L135.49575,905.51489 L136.456446,903.03364 L136.516823,902.898971 C136.754106,902.426655 137.166294,902.190497 137.753386,902.190497 L137.753386,902.190497 L144.622364,902.190497 L145.414938,900.142863 L140.011022,900.142863 L139.802708,900.134997 C139.394902,900.103533 139.040033,899.977676 138.7381,899.757426 C138.401856,899.500468 138.233734,899.155181 138.233734,898.721565 C138.233734,898.560966 138.273763,898.344158 138.353821,898.07114 L138.353821,898.07114 L140.755562,891.88006 L140.832951,891.69091 C141.060672,891.196028 141.459183,890.777282 142.028484,890.434672 C142.620913,890.033175 143.277389,889.832426 143.997911,889.832426 L143.997911,889.832426 L153.340682,889.832426 Z M221.773442,889.832426 L221.90266,889.836209 C222.312874,889.861427 222.517982,890.012735 222.517982,890.290133 C222.517982,890.402552 222.493964,890.514971 222.445929,890.62739 L222.445929,890.62739 L221.485233,893.10864 L221.424856,893.243309 C221.187573,893.715625 220.775385,893.951783 220.188293,893.951783 L220.188293,893.951783 L213.295298,893.951783 L212.502724,895.999417 L217.90664,895.999417 L218.112229,896.00568 C218.711703,896.04326 219.155545,896.249951 219.443754,896.625751 C219.747974,897.027248 219.788003,897.509044 219.563841,898.07114 L219.563841,898.07114 L217.186118,904.26222 L217.108728,904.446908 C216.881008,904.932273 216.482497,905.360536 215.913195,905.731698 C215.272731,906.133195 214.600244,906.333943 213.895733,906.333943 L213.895733,906.333943 L204.57698,906.333943 L204.439841,906.329366 C204.049318,906.301904 203.846851,906.150861 203.832441,905.876237 C203.832441,905.747758 203.864464,905.627309 203.92851,905.51489 L203.92851,905.51489 L204.889206,903.03364 L204.949584,902.898971 C205.186867,902.426655 205.599054,902.190497 206.186146,902.190497 L206.186146,902.190497 L213.055124,902.190497 L213.847698,900.142863 L208.443782,900.142863 L208.235468,900.134997 C207.827662,900.103533 207.472793,899.977676 207.17086,899.757426 C206.834616,899.500468 206.666494,899.155181 206.666494,898.721565 C206.666494,898.560966 206.706523,898.344158 206.786581,898.07114 L206.786581,898.07114 L209.188322,891.88006 L209.265711,891.69091 C209.493432,891.196028 209.891943,890.777282 210.461244,890.434672 C211.053674,890.033175 211.710149,889.832426 212.430672,889.832426 L212.430672,889.832426 L221.773442,889.832426 Z M159.596752,895.413822 L159.653114,895.419214 C159.696057,895.426405 159.749736,895.440785 159.814151,895.462356 C159.975187,895.43 160.063757,895.413822 160.079861,895.413822 L160.079861,895.413822 L164.041354,895.413822 L164.216859,895.417898 C165.066074,895.458659 165.490681,895.805126 165.490681,896.4573 C165.490681,896.586724 165.450422,896.748503 165.369904,896.942639 L165.369904,896.942639 L162.157229,904.562457 L162.088537,904.717538 C161.908881,905.0732 161.593602,905.38551 161.1427,905.654469 C160.627384,905.945672 160.095964,906.091274 159.548441,906.091274 L159.548441,906.091274 L155.586947,906.091274 L155.495693,906.088577 C155.438436,906.084982 155.388335,906.077792 155.345392,906.067007 C155.297082,906.083185 155.216563,906.091274 155.103838,906.091274 L155.103838,906.091274 L151.1665,906.091274 L150.990995,906.087198 C150.14178,906.046437 149.717173,905.699969 149.717173,905.047795 C149.717173,904.869838 149.74938,904.708058 149.813794,904.562457 L149.813794,904.562457 L153.026469,896.942639 L153.095539,896.792866 C153.276956,896.447821 153.600161,896.133741 154.065154,895.850627 C154.564366,895.559423 155.095786,895.413822 155.659413,895.413822 L155.659413,895.413822 L159.596752,895.413822 Z M176.657218,895.413822 L176.794828,895.4182 C177.185929,895.444468 177.38148,895.588942 177.38148,895.851622 C177.38148,895.94891 177.349291,896.054307 177.284912,896.16781 L177.284912,896.16781 L176.657218,897.70011 L176.600384,897.820539 C176.375393,898.242912 175.967828,898.454098 175.377689,898.454098 L175.377689,898.454098 L169.945724,898.454098 L168.014359,903.050997 L173.446324,903.050997 L173.583933,903.055375 C173.975035,903.081643 174.170586,903.226117 174.170586,903.488797 C174.170586,903.569871 174.146444,903.675267 174.098159,903.804986 L174.098159,903.804986 L173.446324,905.337285 L173.389489,905.457714 C173.164499,905.880087 172.756934,906.091274 172.166794,906.091274 L172.166794,906.091274 L164.755181,906.091274 L164.579774,906.087283 C163.731029,906.04738 163.306657,905.708199 163.306657,905.069741 C163.306657,904.891378 163.338846,904.72923 163.403225,904.583296 L163.403225,904.583296 L166.61412,896.946121 L166.683151,896.796008 C166.864468,896.450176 167.187494,896.135381 167.652228,895.851622 C168.151164,895.559755 168.68229,895.413822 169.245605,895.413822 L169.245605,895.413822 L176.657218,895.413822 Z M181.725262,894.685814 L181.863826,894.690415 C182.258406,894.71802 182.462977,894.869851 182.477537,895.145907 C182.477537,895.258912 182.445181,895.371917 182.380469,895.484922 L182.380469,895.484922 L178.522026,905.292165 L178.461022,905.4198 C178.221273,905.867449 177.804803,906.091274 177.211612,906.091274 L177.211612,906.091274 L175.221723,906.091274 L175.091163,906.087471 C174.676686,906.062122 174.469448,905.910025 174.469448,905.631181 C174.469448,905.550463 174.493715,905.437458 174.542249,905.292165 L174.542249,905.292165 L178.400691,895.484922 L178.458157,895.357287 C178.686783,894.909638 179.112522,894.685814 179.735373,894.685814 L179.735373,894.685814 L181.725262,894.685814 Z M193.889897,895.413822 L194.065376,895.417907 C194.914467,895.458761 195.339013,895.806017 195.339013,896.459677 C195.339013,896.589395 195.29876,896.751543 195.218253,896.946121 L195.218253,896.946121 L191.692072,905.337285 L191.635047,905.457714 C191.408734,905.880087 190.993008,906.091274 190.387868,906.091274 L190.387868,906.091274 L188.40741,906.091274 L188.265155,906.086896 C187.860852,906.060628 187.6587,905.916154 187.6587,905.653474 C187.6587,905.556185 187.682852,905.450789 187.731156,905.337285 L187.731156,905.337285 L190.629387,898.454098 L186.692623,898.454098 L184.760469,903.050997 L185.726546,903.050997 L185.902025,903.055082 C186.751116,903.095936 187.175662,903.443193 187.175662,904.096852 C187.175662,904.6968 186.797281,905.215674 186.040521,905.653474 C185.541381,905.94534 185.010039,906.091274 184.446494,906.091274 L184.446494,906.091274 L181.499959,906.091274 L181.32448,906.087283 C180.475389,906.04738 180.050843,905.708199 180.050843,905.069741 C180.050843,904.891378 180.083046,904.72923 180.147451,904.583296 L180.147451,904.583296 L183.359657,896.946121 L183.428716,896.796008 C183.610108,896.450176 183.933265,896.135381 184.39819,895.851622 C184.89733,895.559755 185.428672,895.413822 185.992217,895.413822 L185.992217,895.413822 L193.889897,895.413822 Z M201.866819,889.589757 L202.005383,889.594334 C202.399963,889.621796 202.604534,889.77284 202.619094,890.047463 C202.619094,890.159882 202.586738,890.280331 202.522026,890.40881 L202.522026,890.40881 L196.722228,905.29631 L196.661224,905.423283 C196.421476,905.86861 196.005006,906.091274 195.411814,906.091274 L195.411814,906.091274 L193.421925,906.091274 L193.291365,906.087491 C192.876888,906.062273 192.66965,905.910965 192.66965,905.633567 C192.66965,905.521148 192.693917,905.408729 192.742451,905.29631 L192.742451,905.29631 L198.542249,890.40881 L198.599714,890.277989 C198.82834,889.819168 199.254079,889.589757 199.87693,889.589757 L199.87693,889.589757 L201.866819,889.589757 Z M226.985284,889.589757 L227.114152,889.59354 C227.523259,889.618758 227.727813,889.770066 227.727813,890.047463 C227.727813,890.143823 227.709848,890.235665 227.67392,890.32299 L227.632003,890.40881 L224.446312,898.695703 L225.64394,898.695703 L229.069156,895.37131 L229.168728,895.229161 C229.478725,894.823018 229.890274,894.59964 230.403373,894.559026 L230.578167,894.552257 L232.85366,894.552257 L232.970001,894.557173 C233.188996,894.576838 233.325868,894.655499 233.380617,894.793155 C233.476427,894.969814 233.452474,895.162532 233.308759,895.37131 C233.295072,895.398842 233.222725,895.491268 233.09172,895.648589 L233.021328,895.732657 L228.566152,900.40608 L228.568814,900.481026 L228.576798,900.545265 L228.576798,900.545265 L228.590105,900.598798 L228.949393,904.934963 L228.989314,905.031322 C229.010605,905.095562 229.021251,905.159801 229.021251,905.224041 C229.021251,905.760899 228.711456,906.048502 228.091867,906.086849 L227.943386,906.091274 L225.500225,906.091274 L225.347527,906.08592 C225.104675,906.068076 224.920041,906.005621 224.793624,905.898555 C224.667208,905.791489 224.59901,905.634237 224.58903,905.426797 L224.590028,905.29631 L224.733743,902.116456 L224.637933,901.996007 L223.176827,901.996007 L221.907341,905.29631 L221.847127,905.423283 C221.634149,905.824078 221.27988,906.044514 220.784322,906.084594 L220.613903,906.091274 L218.649793,906.091274 L218.520924,906.087491 C218.111817,906.062273 217.907264,905.910965 217.907264,905.633567 C217.907264,905.558621 217.917909,905.483675 217.9392,905.408729 L217.979121,905.29631 L223.703783,890.40881 L223.760504,890.277989 C223.965653,889.860879 224.331595,889.633364 224.85833,889.595445 L225.021174,889.589757 L226.985284,889.589757 Z M158.672872,898.568523 C158.624891,898.584617 158.544924,898.592663 158.43297,898.592663 L158.43297,898.592663 L156.48977,898.592663 L154.57056,903.130962 L156.51376,903.130962 L156.569737,903.136326 C156.612386,903.143479 156.665698,903.157784 156.729671,903.179241 C156.889606,903.147055 156.977569,903.130962 156.993563,903.130962 L156.993563,903.130962 L158.960753,903.130962 L160.879963,898.592663 L158.912773,898.592663 L158.822144,898.589981 C158.765278,898.586405 158.715521,898.579252 158.672872,898.568523 Z M248.043015,889.873848 L248.139448,889.879828 C248.230647,889.891789 248.306148,889.921691 248.365951,889.969533 C248.445689,890.03731 248.485557,890.123027 248.485557,890.226686 C248.485557,890.253265 248.481128,890.286046 248.472268,890.325029 L248.455656,890.388154 L247.259596,893.462028 L247.222279,893.545513 C247.16423,893.653318 247.073011,893.747089 246.94862,893.826826 C246.834995,893.90158 246.71352,893.948301 246.584196,893.96699 L246.452255,893.976334 L243.593672,893.976334 L243.497613,893.970354 C243.407161,893.958393 243.333529,893.928492 243.276716,893.880649 C243.192992,893.816859 243.15113,893.731142 243.15113,893.623496 C243.15113,893.596917 243.15556,893.564136 243.164419,893.525154 L243.181031,893.462028 L244.377091,890.388154 L244.414408,890.304669 C244.472457,890.196864 244.563677,890.103093 244.688067,890.023356 C244.801693,889.948602 244.923167,889.901881 245.052491,889.883192 L245.184432,889.873848 L248.043015,889.873848 Z M183.185216,891.045773 L183.323055,891.050462 C183.71557,891.078595 183.919069,891.233328 183.933553,891.51466 C183.933553,891.629825 183.901366,891.753216 183.836993,891.884833 L183.836993,891.884833 L183.354196,893.118745 L183.297199,893.252762 C183.070999,893.722791 182.65548,893.957806 182.050642,893.957806 L182.050642,893.957806 L180.071171,893.957806 L179.941295,893.95393 C179.528988,893.928096 179.322835,893.773093 179.322835,893.488919 C179.322835,893.390206 179.346975,893.266815 179.395255,893.118745 L179.395255,893.118745 L179.878052,891.884833 L179.935217,891.750817 C180.162646,891.280788 180.586156,891.045773 181.205746,891.045773 L181.205746,891.045773 L183.185216,891.045773 Z M247.3493,890.69913 L245.232274,890.69913 L244.287387,893.151053 L246.404413,893.151053 L247.3493,890.69913 Z M246.757251,890.932361 L246.824861,890.937013 C246.927302,890.952517 246.978522,891.006783 246.978522,891.09981 L246.974037,891.141672 L246.974037,891.141672 L246.960581,891.183534 L246.661566,891.954993 L246.621617,892.029866 C246.57521,892.098281 246.509427,892.147319 246.424268,892.176981 L246.332649,892.200185 L246.302748,892.875959 L246.2792,892.920437 C246.259764,892.945854 246.232853,892.962798 246.198466,892.97127 L246.14128,892.977624 L245.776481,892.977624 L245.737236,892.973512 C245.71481,892.96803 245.699859,892.957067 245.692384,892.940621 L245.686777,892.911841 L245.710698,892.206165 L245.525309,892.206165 L245.262176,892.875959 L245.239002,892.920437 C245.220064,892.945854 245.19415,892.962798 245.161258,892.97127 L245.106688,892.977624 L244.735909,892.977624 L244.696664,892.973886 C244.663024,892.966411 244.646205,892.947722 244.646205,892.917821 L244.6477,892.895395 L244.6477,892.895395 L244.652185,892.875959 L245.369821,891.028046 L245.395611,890.986184 C245.416044,890.962263 245.442955,890.946315 245.476345,890.938342 L245.531289,890.932361 L246.757251,890.932361 Z M246.248925,891.440687 L245.818344,891.440687 L245.722659,891.69784 L246.15324,891.69784 L246.248925,891.440687 Z M213.834854,830 C224.005548,830 232.520009,837.127096 234.703863,846.683233 C242.673137,848.999944 248.5,856.387807 248.5,865.143502 C248.5,875.641236 240.123844,884.172703 229.722302,884.354962 L229.382411,884.357937 L183.718119,884.357937 C175.402732,884.357937 168.66178,877.582836 168.66178,869.225325 C168.66178,862.877084 172.551104,857.441846 178.065486,855.195345 C179.569129,846.978026 186.733016,840.752119 195.343712,840.752119 L195.291804,840.752506 C198.995152,834.324284 205.912553,830 213.834854,830 Z M207.981337,854.419358 C208.440452,856.634035 208.114611,858.940807 207.059843,860.937854 C204.569525,865.958154 197.396125,872.952477 191.361266,872.952477 C181.489728,872.952477 177.88942,867.031711 177.796384,861.051774 L177.794527,860.812559 L177.794527,860.3921 L176.625524,860.3921 C176.475239,860.3921 176.331584,860.363532 176.199614,860.31149 C173.648211,862.49232 172.029645,865.743514 172.029645,869.37466 C172.029645,875.844118 177.167464,881.107495 183.565868,881.267914 L183.866701,881.271681 L185.319143,881.271013 L185.463158,881.270886 L186.059175,881.270268 C190.542307,881.265093 197.595871,881.245704 207.219868,881.212099 L207.911668,881.209674 L208.58089,881.207312 L209.619949,881.212809 C216.144026,881.246751 221.940464,881.266017 227.009262,881.270605 L227.847324,881.271234 L229.332884,881.271681 L229.649514,881.268575 C238.283758,881.099053 245.231189,874.011385 245.231189,865.292837 C245.231189,863.582275 244.963758,861.934493 244.468628,860.389417 L244.418965,860.3921 L243.249963,860.3921 L243.249963,860.812559 C243.249963,866.872771 239.686382,872.952477 229.684312,872.952477 C225.774763,872.952477 221.394675,870.014741 218.112873,866.584732 C218.05358,866.556775 217.996463,866.523335 217.943153,866.484414 C217.820759,866.377518 217.721755,866.245953 217.652126,866.09849 C216.204065,864.554794 214.970329,862.82033 213.984102,860.942788 C212.929879,858.945193 212.604037,856.63842 213.063152,854.424291 C212.332594,853.872815 211.433947,853.597077 210.522245,853.643124 C209.611086,853.595432 208.712439,853.870074 207.981337,854.419358 Z M200.450975,870.524034 C202.576144,873.803671 207.005232,875.835208 212.12455,875.835208 C216.344126,875.835208 218.001533,875.04871 218.650814,874.398975 C218.65043,874.44805 218.650758,874.495275 218.651008,874.541108 L218.65122,874.958814 C218.649501,875.324836 218.643196,875.530723 218.643196,875.530723 C218.644671,875.542067 218.649823,875.586027 218.651099,875.655966 L218.650804,875.73432 C218.632193,876.484174 218.133303,879.019211 212.236751,879.019211 C206.379111,879.019211 201.735918,875.104824 200.450975,870.524034 Z M203.757059,852.78394 L189.553971,870.163175 C190.347961,870.283609 190.753161,870.146829 191.555358,870.149413 C196.256723,870.149413 202.391169,864.07291 204.38589,860.05361 C204.907523,859.000714 205.960022,856.289651 204.46334,853.843749 C204.395749,853.738994 204.344395,853.646379 204.300715,853.5617 L204.184138,853.327265 C204.091909,853.144735 203.99414,852.985526 203.757059,852.78394 Z M239.150032,853.721575 L226.573152,869.564026 C227.672728,870.138419 228.488796,870.063809 229.726394,870.110688 C239.518806,870.110688 240.27895,862.787296 240.27895,860.543297 C240.27895,857.657418 240.472488,855.567877 239.150032,853.721575 Z M198.586376,850.363909 L184.174763,867.998643 C184.830625,868.512355 185.55414,868.930539 186.323971,869.241402 L186.656672,869.368024 L201.413522,851.309792 C200.509328,850.887846 199.560952,850.570999 198.586376,850.363909 Z M233.457984,850.304062 C233.434726,850.36197 233.406678,850.41758 233.374299,850.470585 L233.322537,850.548102 L220.799784,865.277316 C221.673158,866.151248 222.61325,866.953767 223.611984,867.677383 L224.1162,868.032581 L237.068383,851.713492 C235.964792,851.016533 234.739607,850.538278 233.457984,850.304062 Z M192.930398,849.813108 C186.4659,849.813108 183.416164,851.260531 181.990055,853.668492 C181.523546,854.965623 181.238125,856.349555 181.162881,857.789422 C181.058564,857.813919 180.954777,857.839804 180.85154,857.867054 C180.784024,858.690201 180.765534,859.559571 180.765534,860.46753 L180.765641,860.813762 C180.779266,862.648496 181.01215,864.295663 181.962588,865.841672 L182.149325,866.130385 L195.520329,849.76914 C194.582561,849.677269 193.997743,849.813108 192.930398,849.813108 Z M227.872951,849.813108 C222.216493,849.813108 218.362171,851.115508 216.702226,853.5828 L216.581851,853.770028 C215.085792,856.211565 216.136412,858.917792 216.657115,859.968809 C217.287427,861.166359 217.545137,862.124887 218.331829,863.12999 L218.560174,863.405478 L230.181002,849.743809 C229.292172,849.66693 228.939956,849.813108 227.872951,849.813108 Z M190.19519,852.613036 C190.360733,853.301756 189.990122,854.007725 189.356589,854.212247 C188.639998,854.504245 187.986416,854.950866 187.435368,855.523772 C187.206243,855.757247 186.902651,855.886613 186.58703,855.886613 C186.083526,855.886613 185.631002,855.557038 185.444265,855.054358 C185.256954,854.552295 185.373236,853.97754 185.737546,853.604227 C186.593331,852.723922 187.618669,852.057379 188.740813,851.650799 C189.387521,851.499256 190.029646,851.9237 190.19519,852.613036 Z M222.518443,851.620147 C223.197345,851.632194 223.749604,852.257273 223.775627,853.042303 C223.779675,853.423775 223.651875,853.791193 223.421719,854.063577 C223.190984,854.336631 222.876399,854.491897 222.546778,854.495913 C221.945943,854.639132 221.397154,854.990488 220.972695,855.503133 C220.743117,855.749417 220.441254,855.886613 220.127826,855.886613 C219.620672,855.881259 219.1673,855.519195 218.982249,854.972418 C218.797778,854.426311 218.918638,853.804578 219.287582,853.40169 C220.146909,852.381753 221.292485,851.749982 222.518443,851.620147 Z M217.281539,849.019949 L203.960936,849.019949 C205.231058,849.749452 206.307004,850.77885 207.09526,852.01945 C207.118914,852.057699 207.134316,852.100382 207.156869,852.138631 C209.31096,850.930183 211.931515,850.930183 214.085606,852.138631 C214.108159,852.100382 214.123561,852.057699 214.147215,852.01945 C214.935471,850.77885 216.010867,849.749452 217.281539,849.019949 Z M213.785327,833.58404 C207.757151,833.58404 202.413755,836.530786 199.104002,841.069116 C199.679115,841.377871 200.069578,841.985379 200.069578,842.684279 C200.069578,843.696225 199.250995,844.516569 198.241221,844.516569 C197.906437,844.516569 197.592669,844.426396 197.322782,844.268963 C197.301828,844.25674 197.27826,844.244595 197.25208,844.232529 L197.246242,844.243702 C196.671396,844.173292 196.086056,844.137046 195.492294,844.137046 C192.02343,844.137046 188.842051,845.374146 186.361093,847.433241 C188.04066,847.026696 190.047257,846.788458 192.442688,846.753505 L192.465263,846.748435 L192.487838,846.744186 L228.556651,846.744186 C228.572971,846.744186 228.585482,846.753505 228.601801,846.753505 C229.560548,846.767495 230.457006,846.814049 231.295187,846.890914 C229.139089,839.211911 222.116125,833.58404 213.785327,833.58404 Z" transform="translate(-128 -830)"/>
</svg>
